<?xml version="1.0" standalone="no"?><!DOCTYPE svg PUBLIC "-//W3C//DTD SVG 1.1//EN" "http://www.w3.org/Graphics/SVG/1.1/DTD/svg11.dtd"><svg t="1695874590520" class="icon" viewBox="0 0 1024 1024" version="1.1" xmlns="http://www.w3.org/2000/svg" p-id="1727" xmlns:xlink="http://www.w3.org/1999/xlink" width="200" height="200"><defs><style>.currentColor{fill: currentColor;}</style></defs><path class="currentColor" d="M632.234375 366.51339297h240.64955393v60.26785703H239.70982107v-60.26785703h241.43303596v-241.07142892h151.09151797v241.07142892z m-492.99107107 544.21875c27.12053595-37.125 46.76785702-68.94642892 58.82142809-95.46428595 18.08035703-39.83705392 27.30133905-46.58705392 35.31696405-107.09598202 5.42410703-40.37946405 8.31696405-113.90625 8.91964298-220.82142893h629.91964297v423.32142893h-118.78794608c-28.20535702-26.15625-47.25-49.41964298-57.25446487-69.85044608-9.88392892-20.43080392-18.984375-55.20535702-27.36160702-104.32366095-14.10267892 49.41964298-27.54241094 84.19419607-40.25892811 104.32366095-12.77678595 20.12946406-36.04017892 43.39285702-69.91071487 69.91071405H139.12276797z" p-id="1728"></path></svg>