<svg viewBox="0 0 1339 1024" version="1.1" xmlns="http://www.w3.org/2000/svg" p-id="4275" width="200" height="200"><path d="M351.940923 876.622769a59.076923 59.076923 0 1 1-102.715077 58.446769L25.993846 542.72a59.076923 59.076923 0 0 1 0.078769-58.683077l223.31077-388.647385a59.076923 59.076923 0 0 1 102.4 58.840616l-206.375385 359.424 206.532923 362.889846z m619.283692 0l206.532923-362.889846-206.375384-359.424a59.076923 59.076923 0 0 1 102.4-58.840615l223.310769 388.647384a59.076923 59.076923 0 0 1 0.078769 58.683077l-223.232 392.270769a59.076923 59.076923 0 0 1-102.715077-58.446769zM733.892923 109.804308a59.076923 59.076923 0 1 1 112.482462 36.233846L593.92 930.343385a59.076923 59.076923 0 1 1-112.403692-36.155077l252.376615-784.541539z" fill="currentColor"></path></svg>