<svg viewBox="0 0 1024 1024" version="1.1" xmlns="http://www.w3.org/2000/svg" width="128" height="128"><path d="M512 0C229.2 0 0 229.2 0 512s229.2 512 512 512 512-229.2 512-512S794.8 0 512 0z m0 960C265 960 64 759 64 512S265 64 512 64s448 201 448 448-201 448-448 448z" p-id="3595"></path><path d="M320 405.3m-64 0a64 64 0 1 0 128 0 64 64 0 1 0-128 0Z" p-id="3596"></path><path d="M704 405.3m-64 0a64 64 0 1 0 128 0 64 64 0 1 0-128 0Z" p-id="3597"></path><path d="M512 810.7c117.8 0 213.3-95.5 213.3-213.3H298.7c0 117.8 95.5 213.3 213.3 213.3z" p-id="3598"></path></svg>