<?xml version="1.0" standalone="no"?><!DOCTYPE svg PUBLIC "-//W3C//DTD SVG 1.1//EN" "http://www.w3.org/Graphics/SVG/1.1/DTD/svg11.dtd"><svg t="1695875282369" class="icon" viewBox="0 0 1228 1024" version="1.1" xmlns="http://www.w3.org/2000/svg" p-id="1588" xmlns:xlink="http://www.w3.org/1999/xlink" width="239.84375" height="200"><defs><style>.currentColor{fill: currentColor;}</style></defs><path class="currentColor" d="M66.24000031 69.248H1152.00000031v894.97600031H66.24000031V69.248z m313.08799969 319.488a190.39999969 190.39999969 0 0 0-135.744 56.256 191.232 191.232 0 0 0-56.256 135.744 190.39999969 190.39999969 0 0 0 56.256 135.744 191.232 191.232 0 0 0 135.744 56.32000031c20.03200031 0 39.48799969-3.072 58.49599969-9.08800031 14.71999969-4.73599969 28.86400031-11.20000031 42.36800062-19.45600031v25.85600062h91.13599969V389.504H480.19200031v27.71200031a196.608 196.608 0 0 0-42.36800062-19.45600031 193.152 193.152 0 0 0-58.49599969-8.95999969zM450.56 509.504c19.776 19.71199969 29.63200031 43.51999969 29.63200031 71.232 0 27.77599969-9.85600031 51.52000031-29.63200031 71.232-19.71199969 19.51999969-43.51999969 29.24800031-71.232 29.24800031-27.77599969 0-51.52000031-9.72799969-71.232-29.24800031a97.79200031 97.79200031 0 0 1-29.24800031-71.232c0-27.77599969 9.72799969-51.52000031 29.24800031-71.232 19.71199969-19.776 43.51999969-29.63200031 71.232-29.63200031 27.77599969 0 51.52000031 9.85600031 71.232 29.63200031z m310.52800031-76.15999969c-13.50400031 4.28800031-26.23999969 10.176-38.27200031 17.664V234.62400031H639.99999969v536.256h82.88000062v-23.29600031a173.05600031 173.05600031 0 0 0 91.13599969 25.85599969c48.25600031 0 89.40799969-16.96000031 123.39199969-50.94399938a167.68000031 167.68000031 0 0 0 51.00800062-123.00800062c0-48.25600031-17.02399969-89.34400031-51.00800062-123.39199969a168.06400031 168.06400031 0 0 0-123.39199969-51.00799969c-17.98399969 0-35.64799969 2.75200031-52.86400031 8.31999938z m52.86399938 74.62399969c25.27999969 0 46.91200031 8.89600031 64.896 26.62399969 17.72800031 18.048 26.62399969 39.67999969 26.62400062 64.896 0 24.96-8.89600031 46.52800031-26.62400062 64.512-17.98399969 17.72800031-39.67999969 26.62399969-64.896 26.62400062-24.96 0-46.464-8.89600031-64.512-26.62400062a88.63999969 88.63999969 0 0 1-26.62399969-64.512c0-25.21600031 8.89600031-46.848 26.62399969-64.896a88.63999969 88.63999969 0 0 1 64.512-26.62399969z" p-id="1589"></path></svg>