<?xml version="1.0" standalone="no"?><!DOCTYPE svg PUBLIC "-//W3C//DTD SVG 1.1//EN" "http://www.w3.org/Graphics/SVG/1.1/DTD/svg11.dtd"><svg t="1695871595655" class="icon" viewBox="0 0 1024 1024" version="1.1" xmlns="http://www.w3.org/2000/svg" p-id="5083" xmlns:xlink="http://www.w3.org/1999/xlink" width="200" height="200"><defs><style>.currentColor{fill: currentColor;}</style></defs><path class="currentColor" d="M656.64 165.184l-186.432 695.296-92.736-24.896 186.432-695.232z" p-id="5084"></path><path class="currentColor" d="M787.2 224m-48 0l-288 0q-48 0-48-48l0 0q0-48 48-48l288 0q48 0 48 48l0 0q0 48-48 48Z" p-id="5085"></path><path class="currentColor" d="M620.8 896m-48 0l-288 0q-48 0-48-48l0 0q0-48 48-48l288 0q48 0 48 48l0 0q0 48-48 48Z" p-id="5086"></path></svg>