<svg viewBox="0 0 1024 1024" version="1.1" xmlns="http://www.w3.org/2000/svg" p-id="6967" width="128" height="128"><path fill="currentColor" d="M934.9 163H370.3c-13.8 0-25-11.2-25-25s11.2-25 25-25h564.6c13.8 0 25 11.2 25 25s-11.2 25-25 25zM934.9 544.9H370.3c-13.8 0-25-11.2-25-25s11.2-25 25-25h564.6c13.8 0 25 11.2 25 25s-11.2 25-25 25zM934.9 913H370.3c-13.8 0-25-11.2-25-25s11.2-25 25-25h564.6c13.8 0 25 11.2 25 25s-11.2 25-25 25z"></path><path fill="currentColor" d="M135.7 138m-72.7 0a72.7 72.7 0 1 0 145.4 0 72.7 72.7 0 1 0-145.4 0Z"></path><path fill="currentColor" d="M135.7 888m-72.7 0a72.7 72.7 0 1 0 145.4 0 72.7 72.7 0 1 0-145.4 0Z"></path><path fill="currentColor" d="M135.7 513m-72.7 0a72.7 72.7 0 1 0 145.4 0 72.7 72.7 0 1 0-145.4 0Z"></path></svg>