<?xml version="1.0" standalone="no"?><!DOCTYPE svg PUBLIC "-//W3C//DTD SVG 1.1//EN" "http://www.w3.org/Graphics/SVG/1.1/DTD/svg11.dtd"><svg t="1695967067324" class="icon" viewBox="0 0 1024 1024" version="1.1" xmlns="http://www.w3.org/2000/svg" p-id="1925" xmlns:xlink="http://www.w3.org/1999/xlink" width="200" height="200"><defs><style>.currentColor{fill: currentColor;}</style></defs><path class="currentColor" d="M998.4 544.96V478.93333333c0-1.81333333-0.53333333-3.2-2.45333333-3.2H575.57333333l-0.53333333-0.10666666c-11.41333333-2.24-23.04-4.48-34.66666667-6.61333334-18.02666667-3.30666667-24.74666667-4.58666667-33.92-6.4-56.64-11.09333333-91.09333333-22.08-119.04-38.18666666-40.42666667-23.57333333-60.05333333-55.68-60.05333333-98.13333334 0-42.34666667 17.49333333-77.65333333 50.45333333-102.08 32.10666667-23.78666667 77.65333333-36.26666667 131.52-36.26666666 61.65333333 0 109.44 16.32 141.97333334 48.53333333 16.64 16.42666667 28.90666667 36.58666667 36.26666666 59.94666667 1.70666667 5.22666667 3.30666667 12.16 4.90666667 20.05333333 0.53333333 2.66666667 2.88 4.58666667 5.65333333 4.58666667h80c3.09333333 0 5.76-2.45333333 5.76-5.54666667v-0.85333333c-1.06666667-7.25333333-1.38666667-12.90666667-2.13333333-16.96-7.78666667-46.72-29.86666667-87.46666667-63.89333333-118.18666667-47.68-43.52-118.18666667-66.56-203.73333334-66.56-78.29333333 0-148.69333333 19.52-198.29333333 54.93333333-27.52 19.84-48.64 44.16-62.72 72.42666667-14.29333333 29.01333333-21.65333333 62.61333333-21.65333333 99.73333333 0 31.46666667 5.97333333 58.13333333 18.34666666 81.6 8.74666667 16.53333333 20.58666667 31.14666667 36.26666667 44.69333334l10.88 9.38666666H29.01333333c-1.92 0-4.48 1.49333333-4.48 3.30666667V545.06666667c0 1.92 2.56 3.2 4.48 3.2h476.48l0.53333334 0.21333333c1.38666667 0.32 2.77333333 0.64 4.05333333 0.85333333 0.85333333 0.21333333 1.6 0.32 2.45333333 0.53333334 35.2 7.04 55.14666667 11.62666667 73.6 16.85333333 25.92 7.36 45.65333333 15.04 61.86666667 24.10666667 41.28 23.25333333 61.33333333 56.74666667 61.33333333 102.4 0 40.42666667-17.70666667 76.58666667-49.92 101.76-34.34666667 26.88-85.01333333 41.17333333-146.66666666 41.17333333-48.64 0-90.24-9.49333333-123.73333334-28.16-32.96-18.45333333-55.89333333-45.12-68.05333333-79.25333333-0.96-2.56-1.92-6.18666667-3.09333333-10.56-0.64-2.45333333-2.98666667-4.58666667-5.54666667-4.58666667h-87.57333333c-3.2 0-6.08 3.2-6.08 6.4v0.85333333c0 2.34666667 0.53333333 4.37333333 0.74666666 5.76 6.93333333 52.16 32.42666667 94.93333333 75.62666667 126.93333334 50.77333333 37.54666667 122.66666667 57.38666667 207.57333333 57.38666666 91.30666667 0 167.89333333-21.44 221.12-61.86666666 26.66666667-20.16 47.25333333-45.01333333 61.12-73.92 13.97333333-29.22666667 21.12-62.29333333 21.12-98.24 0-34.13333333-6.18666667-62.50666667-18.98666666-86.93333334-6.08-11.84-13.86666667-22.82666667-23.14666667-32.74666666l-8.42666667-9.06666667h240.32c2.13333333 0.10666667 2.66666667-1.38666667 2.66666667-3.2z" p-id="1926"></path></svg>