<?xml version="1.0" standalone="no"?><!DOCTYPE svg PUBLIC "-//W3C//DTD SVG 1.1//EN" "http://www.w3.org/Graphics/SVG/1.1/DTD/svg11.dtd"><svg t="1695875224885" class="icon" viewBox="0 0 1024 1024" version="1.1" xmlns="http://www.w3.org/2000/svg" p-id="1728" xmlns:xlink="http://www.w3.org/1999/xlink" width="200" height="200"><path d="M767.68181826 890.40909131h-490.90909131a30.68181826 30.68181826 0 0 1 0-61.36363652h490.90909131a30.68181826 30.68181826 0 0 1 0 61.36363652z m-245.45454521-92.04545479C369.96363653 798.36363652 246.09090869 674.49090869 246.09090869 522.22727305v-347.72727305a30.68181826 30.68181826 0 0 1 61.36363652 0v347.72727305C307.45454521 640.65909131 403.79545479 737 522.22727305 737S737 640.65909131 737 522.22727305v-347.72727305a30.68181826 30.68181826 0 0 1 61.36363652 0v347.72727305C798.36363652 674.49090869 674.49090869 798.36363652 522.22727305 798.36363652z" fill="#797979" p-id="1729"></path></svg>