<?xml version="1.0" standalone="no"?><!DOCTYPE svg PUBLIC "-//W3C//DTD SVG 1.1//EN" "http://www.w3.org/Graphics/SVG/1.1/DTD/svg11.dtd"><svg t="1695875219281" class="icon" viewBox="0 0 1024 1024" version="1.1" xmlns="http://www.w3.org/2000/svg" p-id="1588" xmlns:xlink="http://www.w3.org/1999/xlink" width="200" height="200"><path d="M647.6 186.86l-174.78 651.84-86.94-23.34 174.78-651.78z" fill="#959EAD" p-id="1589"></path><path d="M770 242m-45 0l-270 0q-45 0-45-45l0 0q0-45 45-45l270 0q45 0 45 45l0 0q0 45-45 45Z" fill="#959EAD" p-id="1590"></path><path d="M614 872m-45 0l-270 0q-45 0-45-45l0 0q0-45 45-45l270 0q45 0 45 45l0 0q0 45-45 45Z" fill="#959EAD" p-id="1591"></path></svg>